<svg xmlns="http://www.w3.org/2000/svg" width="640" height="360" viewBox="0 0 640 360" fill="none">
  <rect width="640" height="360" rx="28" fill="#0d1117"/>
  <rect x="32" y="32" width="160" height="24" rx="6" fill="#161b22"/>
  <rect x="32" y="72" width="320" height="16" rx="5" fill="#21262d"/>
  <rect x="32" y="100" width="280" height="16" rx="5" fill="#21262d"/>
  <rect x="32" y="128" width="300" height="16" rx="5" fill="#21262d"/>
  <rect x="32" y="176" width="120" height="12" rx="4" fill="#30363d"/>
  <rect x="164" y="176" width="90" height="12" rx="4" fill="#30363d"/>
  <rect x="262" y="176" width="110" height="12" rx="4" fill="#30363d"/>
  <circle cx="560" cy="300" r="48" fill="url(#g)"/>
  <path fill="#fff" fill-opacity="0.08" d="M0 260h640v100H0z"/>
  <path fill="#fff" fill-rule="evenodd" d="M320 144c-49.705 0-90 40.295-90 90 0 39.758 25.78 73.5 61.546 85.44 4.5.826 6.154-1.954 6.154-4.338 0-2.148-.084-9.231-.123-16.753-25.04 5.446-30.318-10.617-30.318-10.617-4.096-10.407-9.997-13.168-9.997-13.168-8.166-5.584.615-5.47.615-5.47 9.04.636 13.79 9.28 13.79 9.28 8.03 13.764 21.074 9.788 26.215 7.487.81-5.84 3.143-9.794 5.72-12.048-19.985-2.275-41.004-9.993-41.004-44.484 0-9.824 3.465-17.855 9.16-24.157-.916-2.27-3.97-11.434.872-23.835 0 0 7.47-2.392 24.48 9.214 7.095-1.972 14.698-2.958 22.253-2.994 7.55.036 15.16 1.022 22.262 2.994 17.002-11.606 24.465-9.214 24.465-9.214 4.85 12.401 1.796 21.565.88 23.835 5.71 6.302 9.154 14.333 9.154 24.157 0 34.58-21.04 42.19-41.08 44.43 3.233 2.79 6.11 8.292 6.11 16.71 0 12.066-.104 21.772-.104 24.74 0 2.403 1.63 5.202 6.19 4.312C384.24 307.48 410 273.743 410 234c0-49.705-40.295-90-90-90Z" clip-rule="evenodd"/>
  <defs>
    <linearGradient id="g" x1="512" y1="252" x2="608" y2="348" gradientUnits="userSpaceOnUse">
      <stop stop-color="#6366f1"/>
      <stop offset="0.5" stop-color="#8b5cf6"/>
      <stop offset="1" stop-color="#ec4899"/>
    </linearGradient>
  </defs>
</svg>
